<?xml version="1.0" encoding="utf-8"?>
<svg version="1.1" xmlns:xlink="http://www.w3.org/1999/xlink" width="349px" height="172px" xmlns="http://www.w3.org/2000/svg">
  <defs>
    <linearGradient gradientUnits="userSpaceOnUse" x1="174.5" y1="0" x2="174.5" y2="172" id="LinearGradient1">
      <stop id="Stop2" stop-color="#ffffff" offset="0" />
      <stop id="Stop3" stop-color="#f2f2f2" offset="0" />
      <stop id="Stop4" stop-color="#e4e4e4" offset="1" />
      <stop id="Stop5" stop-color="#ffffff" offset="1" />
    </linearGradient>
    <mask fill="white" id="clip6">
      <path d="M 349 149.716599190283  L 349 22.2834008097166  C 349 9.80469635627527  338.340737527115 0  324.774403470716 0  L 24.2255965292841 0  C 10.6592624728851 0  0 9.80469635627527  0 22.2834008097166  L 0 149.716599190283  C 0 162.195303643725  10.6592624728851 172  24.2255965292841 172  L 324.774403470716 172  C 338.340737527115 172  349 162.195303643725  349 149.716599190283  Z " fill-rule="evenodd" />
    </mask>
  </defs>
  <g transform="matrix(1 0 0 1 -651 -376 )">
    <path d="M 349 149.716599190283  L 349 22.2834008097166  C 349 9.80469635627527  338.340737527115 0  324.774403470716 0  L 24.2255965292841 0  C 10.6592624728851 0  0 9.80469635627527  0 22.2834008097166  L 0 149.716599190283  C 0 162.195303643725  10.6592624728851 172  24.2255965292841 172  L 324.774403470716 172  C 338.340737527115 172  349 162.195303643725  349 149.716599190283  Z " fill-rule="nonzero" fill="url(#LinearGradient1)" stroke="none" transform="matrix(1 0 0 1 651 376 )" />
    <path d="M 349 149.716599190283  L 349 22.2834008097166  C 349 9.80469635627527  338.340737527115 0  324.774403470716 0  L 24.2255965292841 0  C 10.6592624728851 0  0 9.80469635627527  0 22.2834008097166  L 0 149.716599190283  C 0 162.195303643725  10.6592624728851 172  24.2255965292841 172  L 324.774403470716 172  C 338.340737527115 172  349 162.195303643725  349 149.716599190283  Z " stroke-width="2" stroke="#999999" fill="none" transform="matrix(1 0 0 1 651 376 )" mask="url(#clip6)" />
  </g>
</svg>