<?xml version="1.0" encoding="utf-8"?>
<svg version="1.1" xmlns:xlink="http://www.w3.org/1999/xlink" width="12px" height="12px" viewBox="810 623  12 12" xmlns="http://www.w3.org/2000/svg">
  <path d="M 810.5 627  A 3.5 3.5 0 0 1 814 623.5 L 818 623.5  A 3.5 3.5 0 0 1 821.5 627 L 821.5 631  A 3.5 3.5 0 0 1 818 634.5 L 814 634.5  A 3.5 3.5 0 0 1 810.5 631 L 810.5 627  Z " fill-rule="nonzero" fill="#ffffff" stroke="none" />
  <path d="M 810.5 627  A 3.5 3.5 0 0 1 814 623.5 L 818 623.5  A 3.5 3.5 0 0 1 821.5 627 L 821.5 631  A 3.5 3.5 0 0 1 818 634.5 L 814 634.5  A 3.5 3.5 0 0 1 810.5 631 L 810.5 627  Z " stroke-width="1" stroke="#999999" fill="none" />
  <path d="M 812.571428571429 629  L 815.142857142857 631.571428571429  L 819.428571428571 625.571428571429  " stroke-width="2.57142857142857" stroke="#999999" fill="none" />
</svg>