<?xml version="1.0" encoding="utf-8"?>
<svg version="1.1" xmlns:xlink="http://www.w3.org/1999/xlink" width="12px" height="12px" viewBox="811 352  12 12" xmlns="http://www.w3.org/2000/svg">
  <path d="M 811.5 356  A 3.5 3.5 0 0 1 815 352.5 L 819 352.5  A 3.5 3.5 0 0 1 822.5 356 L 822.5 360  A 3.5 3.5 0 0 1 819 363.5 L 815 363.5  A 3.5 3.5 0 0 1 811.5 360 L 811.5 356  Z " fill-rule="nonzero" fill="#f0f0f0" stroke="none" />
  <path d="M 811.5 356  A 3.5 3.5 0 0 1 815 352.5 L 819 352.5  A 3.5 3.5 0 0 1 822.5 356 L 822.5 360  A 3.5 3.5 0 0 1 819 363.5 L 815 363.5  A 3.5 3.5 0 0 1 811.5 360 L 811.5 356  Z " stroke-width="1" stroke="#999999" fill="none" />
</svg>