<?xml version="1.0" encoding="utf-8"?>
<svg version="1.1" xmlns:xlink="http://www.w3.org/1999/xlink" width="12px" height="12px" viewBox="810 773  12 12" xmlns="http://www.w3.org/2000/svg">
  <path d="M 810.5 777  A 3.5 3.5 0 0 1 814 773.5 L 818 773.5  A 3.5 3.5 0 0 1 821.5 777 L 821.5 781  A 3.5 3.5 0 0 1 818 784.5 L 814 784.5  A 3.5 3.5 0 0 1 810.5 781 L 810.5 777  Z " fill-rule="nonzero" fill="#ffffff" stroke="none" />
  <path d="M 810.5 777  A 3.5 3.5 0 0 1 814 773.5 L 818 773.5  A 3.5 3.5 0 0 1 821.5 777 L 821.5 781  A 3.5 3.5 0 0 1 818 784.5 L 814 784.5  A 3.5 3.5 0 0 1 810.5 781 L 810.5 777  Z " stroke-width="1" stroke="#999999" fill="none" />
  <path d="M 812.571428571429 779  L 815.142857142857 781.571428571429  L 819.428571428571 775.571428571429  " stroke-width="2.57142857142857" stroke="#999999" fill="none" />
</svg>