<?xml version="1.0" encoding="utf-8"?>
<svg version="1.1" xmlns:xlink="http://www.w3.org/1999/xlink" width="12px" height="12px" viewBox="811 831  12 12" xmlns="http://www.w3.org/2000/svg">
  <path d="M 811.5 835  A 3.5 3.5 0 0 1 815 831.5 L 819 831.5  A 3.5 3.5 0 0 1 822.5 835 L 822.5 839  A 3.5 3.5 0 0 1 819 842.5 L 815 842.5  A 3.5 3.5 0 0 1 811.5 839 L 811.5 835  Z " fill-rule="nonzero" fill="#f0f0f0" stroke="none" />
  <path d="M 811.5 835  A 3.5 3.5 0 0 1 815 831.5 L 819 831.5  A 3.5 3.5 0 0 1 822.5 835 L 822.5 839  A 3.5 3.5 0 0 1 819 842.5 L 815 842.5  A 3.5 3.5 0 0 1 811.5 839 L 811.5 835  Z " stroke-width="1" stroke="#999999" fill="none" />
</svg>