<?xml version="1.0" encoding="utf-8"?>
<svg version="1.1" xmlns:xlink="http://www.w3.org/1999/xlink" width="12px" height="12px" viewBox="810 682  12 12" xmlns="http://www.w3.org/2000/svg">
  <path d="M 810.5 686  A 3.5 3.5 0 0 1 814 682.5 L 818 682.5  A 3.5 3.5 0 0 1 821.5 686 L 821.5 690  A 3.5 3.5 0 0 1 818 693.5 L 814 693.5  A 3.5 3.5 0 0 1 810.5 690 L 810.5 686  Z " fill-rule="nonzero" fill="#ffffff" stroke="none" />
  <path d="M 810.5 686  A 3.5 3.5 0 0 1 814 682.5 L 818 682.5  A 3.5 3.5 0 0 1 821.5 686 L 821.5 690  A 3.5 3.5 0 0 1 818 693.5 L 814 693.5  A 3.5 3.5 0 0 1 810.5 690 L 810.5 686  Z " stroke-width="1" stroke="#999999" fill="none" />
  <path d="M 812.571428571429 688  L 815.142857142857 690.571428571429  L 819.428571428571 684.571428571429  " stroke-width="2.57142857142857" stroke="#999999" fill="none" />
</svg>