<?xml version="1.0" encoding="utf-8"?>
<svg version="1.1" xmlns:xlink="http://www.w3.org/1999/xlink" width="12px" height="12px" viewBox="810 743  12 12" xmlns="http://www.w3.org/2000/svg">
  <path d="M 810.5 747  A 3.5 3.5 0 0 1 814 743.5 L 818 743.5  A 3.5 3.5 0 0 1 821.5 747 L 821.5 751  A 3.5 3.5 0 0 1 818 754.5 L 814 754.5  A 3.5 3.5 0 0 1 810.5 751 L 810.5 747  Z " fill-rule="nonzero" fill="#f0f0f0" stroke="none" />
  <path d="M 810.5 747  A 3.5 3.5 0 0 1 814 743.5 L 818 743.5  A 3.5 3.5 0 0 1 821.5 747 L 821.5 751  A 3.5 3.5 0 0 1 818 754.5 L 814 754.5  A 3.5 3.5 0 0 1 810.5 751 L 810.5 747  Z " stroke-width="1" stroke="#999999" fill="none" />
</svg>