<?xml version="1.0" encoding="utf-8"?>
<svg version="1.1" xmlns:xlink="http://www.w3.org/1999/xlink" width="12px" height="12px" viewBox="810 562  12 12" xmlns="http://www.w3.org/2000/svg">
  <path d="M 810.5 566  A 3.5 3.5 0 0 1 814 562.5 L 818 562.5  A 3.5 3.5 0 0 1 821.5 566 L 821.5 570  A 3.5 3.5 0 0 1 818 573.5 L 814 573.5  A 3.5 3.5 0 0 1 810.5 570 L 810.5 566  Z " fill-rule="nonzero" fill="#f0f0f0" stroke="none" />
  <path d="M 810.5 566  A 3.5 3.5 0 0 1 814 562.5 L 818 562.5  A 3.5 3.5 0 0 1 821.5 566 L 821.5 570  A 3.5 3.5 0 0 1 818 573.5 L 814 573.5  A 3.5 3.5 0 0 1 810.5 570 L 810.5 566  Z " stroke-width="1" stroke="#999999" fill="none" />
</svg>