<?xml version="1.0" encoding="utf-8"?>
<svg version="1.1" xmlns:xlink="http://www.w3.org/1999/xlink" width="12px" height="12px" viewBox="810 503  12 12" xmlns="http://www.w3.org/2000/svg">
  <path d="M 810.5 507  A 3.5 3.5 0 0 1 814 503.5 L 818 503.5  A 3.5 3.5 0 0 1 821.5 507 L 821.5 511  A 3.5 3.5 0 0 1 818 514.5 L 814 514.5  A 3.5 3.5 0 0 1 810.5 511 L 810.5 507  Z " fill-rule="nonzero" fill="#ffffff" stroke="none" />
  <path d="M 810.5 507  A 3.5 3.5 0 0 1 814 503.5 L 818 503.5  A 3.5 3.5 0 0 1 821.5 507 L 821.5 511  A 3.5 3.5 0 0 1 818 514.5 L 814 514.5  A 3.5 3.5 0 0 1 810.5 511 L 810.5 507  Z " stroke-width="1" stroke="#999999" fill="none" />
  <path d="M 812.571428571429 509  L 815.142857142857 511.571428571429  L 819.428571428571 505.571428571429  " stroke-width="2.57142857142857" stroke="#999999" fill="none" />
</svg>