<?xml version="1.0" encoding="utf-8"?>
<svg version="1.1" xmlns:xlink="http://www.w3.org/1999/xlink" width="12px" height="12px" viewBox="810 441  12 12" xmlns="http://www.w3.org/2000/svg">
  <path d="M 810.5 445  A 3.5 3.5 0 0 1 814 441.5 L 818 441.5  A 3.5 3.5 0 0 1 821.5 445 L 821.5 449  A 3.5 3.5 0 0 1 818 452.5 L 814 452.5  A 3.5 3.5 0 0 1 810.5 449 L 810.5 445  Z " fill-rule="nonzero" fill="#ffffff" stroke="none" />
  <path d="M 810.5 445  A 3.5 3.5 0 0 1 814 441.5 L 818 441.5  A 3.5 3.5 0 0 1 821.5 445 L 821.5 449  A 3.5 3.5 0 0 1 818 452.5 L 814 452.5  A 3.5 3.5 0 0 1 810.5 449 L 810.5 445  Z " stroke-width="1" stroke="#999999" fill="none" />
  <path d="M 812.571428571429 447  L 815.142857142857 449.571428571429  L 819.428571428571 443.571428571429  " stroke-width="2.57142857142857" stroke="#999999" fill="none" />
</svg>