<?xml version="1.0" encoding="utf-8"?>
<svg version="1.1" xmlns:xlink="http://www.w3.org/1999/xlink" width="12px" height="12px" viewBox="810 802  12 12" xmlns="http://www.w3.org/2000/svg">
  <path d="M 810.5 806  A 3.5 3.5 0 0 1 814 802.5 L 818 802.5  A 3.5 3.5 0 0 1 821.5 806 L 821.5 810  A 3.5 3.5 0 0 1 818 813.5 L 814 813.5  A 3.5 3.5 0 0 1 810.5 810 L 810.5 806  Z " fill-rule="nonzero" fill="#ffffff" stroke="none" />
  <path d="M 810.5 806  A 3.5 3.5 0 0 1 814 802.5 L 818 802.5  A 3.5 3.5 0 0 1 821.5 806 L 821.5 810  A 3.5 3.5 0 0 1 818 813.5 L 814 813.5  A 3.5 3.5 0 0 1 810.5 810 L 810.5 806  Z " stroke-width="1" stroke="#999999" fill="none" />
</svg>