<?xml version="1.0" encoding="utf-8"?>
<svg version="1.1" xmlns:xlink="http://www.w3.org/1999/xlink" width="12px" height="12px" viewBox="810 532  12 12" xmlns="http://www.w3.org/2000/svg">
  <path d="M 810.5 536  A 3.5 3.5 0 0 1 814 532.5 L 818 532.5  A 3.5 3.5 0 0 1 821.5 536 L 821.5 540  A 3.5 3.5 0 0 1 818 543.5 L 814 543.5  A 3.5 3.5 0 0 1 810.5 540 L 810.5 536  Z " fill-rule="nonzero" fill="#ffffff" stroke="none" />
  <path d="M 810.5 536  A 3.5 3.5 0 0 1 814 532.5 L 818 532.5  A 3.5 3.5 0 0 1 821.5 536 L 821.5 540  A 3.5 3.5 0 0 1 818 543.5 L 814 543.5  A 3.5 3.5 0 0 1 810.5 540 L 810.5 536  Z " stroke-width="1" stroke="#999999" fill="none" />
  <path d="M 812.571428571429 538  L 815.142857142857 540.571428571429  L 819.428571428571 534.571428571429  " stroke-width="2.57142857142857" stroke="#999999" fill="none" />
</svg>