<?xml version="1.0" encoding="utf-8"?>
<svg version="1.1" xmlns:xlink="http://www.w3.org/1999/xlink" width="12px" height="12px" viewBox="810 592  12 12" xmlns="http://www.w3.org/2000/svg">
  <path d="M 810.5 596  A 3.5 3.5 0 0 1 814 592.5 L 818 592.5  A 3.5 3.5 0 0 1 821.5 596 L 821.5 600  A 3.5 3.5 0 0 1 818 603.5 L 814 603.5  A 3.5 3.5 0 0 1 810.5 600 L 810.5 596  Z " fill-rule="nonzero" fill="#ffffff" stroke="none" />
  <path d="M 810.5 596  A 3.5 3.5 0 0 1 814 592.5 L 818 592.5  A 3.5 3.5 0 0 1 821.5 596 L 821.5 600  A 3.5 3.5 0 0 1 818 603.5 L 814 603.5  A 3.5 3.5 0 0 1 810.5 600 L 810.5 596  Z " stroke-width="1" stroke="#999999" fill="none" />
  <path d="M 812.571428571429 598  L 815.142857142857 600.571428571429  L 819.428571428571 594.571428571429  " stroke-width="2.57142857142857" stroke="#999999" fill="none" />
</svg>