<?xml version="1.0" encoding="utf-8"?>
<svg version="1.1" xmlns:xlink="http://www.w3.org/1999/xlink" width="12px" height="12px" viewBox="810 471  12 12" xmlns="http://www.w3.org/2000/svg">
  <path d="M 810.5 475  A 3.5 3.5 0 0 1 814 471.5 L 818 471.5  A 3.5 3.5 0 0 1 821.5 475 L 821.5 479  A 3.5 3.5 0 0 1 818 482.5 L 814 482.5  A 3.5 3.5 0 0 1 810.5 479 L 810.5 475  Z " fill-rule="nonzero" fill="#ffffff" stroke="none" />
  <path d="M 810.5 475  A 3.5 3.5 0 0 1 814 471.5 L 818 471.5  A 3.5 3.5 0 0 1 821.5 475 L 821.5 479  A 3.5 3.5 0 0 1 818 482.5 L 814 482.5  A 3.5 3.5 0 0 1 810.5 479 L 810.5 475  Z " stroke-width="1" stroke="#999999" fill="none" />
</svg>