<?xml version="1.0" encoding="utf-8"?>
<svg version="1.1" xmlns:xlink="http://www.w3.org/1999/xlink" width="12px" height="12px" viewBox="810 412  12 12" xmlns="http://www.w3.org/2000/svg">
  <path d="M 810.5 416  A 3.5 3.5 0 0 1 814 412.5 L 818 412.5  A 3.5 3.5 0 0 1 821.5 416 L 821.5 420  A 3.5 3.5 0 0 1 818 423.5 L 814 423.5  A 3.5 3.5 0 0 1 810.5 420 L 810.5 416  Z " fill-rule="nonzero" fill="#ffffff" stroke="none" />
  <path d="M 810.5 416  A 3.5 3.5 0 0 1 814 412.5 L 818 412.5  A 3.5 3.5 0 0 1 821.5 416 L 821.5 420  A 3.5 3.5 0 0 1 818 423.5 L 814 423.5  A 3.5 3.5 0 0 1 810.5 420 L 810.5 416  Z " stroke-width="1" stroke="#999999" fill="none" />
  <path d="M 812.571428571429 418  L 815.142857142857 420.571428571429  L 819.428571428571 414.571428571429  " stroke-width="2.57142857142857" stroke="#999999" fill="none" />
</svg>