<?xml version="1.0" encoding="utf-8"?>
<svg version="1.1" xmlns:xlink="http://www.w3.org/1999/xlink" width="12px" height="12px" viewBox="1500 352  12 12" xmlns="http://www.w3.org/2000/svg">
  <path d="M 1500.5 356  A 3.5 3.5 0 0 1 1504 352.5 L 1508 352.5  A 3.5 3.5 0 0 1 1511.5 356 L 1511.5 360  A 3.5 3.5 0 0 1 1508 363.5 L 1504 363.5  A 3.5 3.5 0 0 1 1500.5 360 L 1500.5 356  Z " fill-rule="nonzero" fill="#ffffff" stroke="none" />
  <path d="M 1500.5 356  A 3.5 3.5 0 0 1 1504 352.5 L 1508 352.5  A 3.5 3.5 0 0 1 1511.5 356 L 1511.5 360  A 3.5 3.5 0 0 1 1508 363.5 L 1504 363.5  A 3.5 3.5 0 0 1 1500.5 360 L 1500.5 356  Z " stroke-width="1" stroke="#999999" fill="none" />
</svg>