<?xml version="1.0" encoding="utf-8"?>
<svg version="1.1" xmlns:xlink="http://www.w3.org/1999/xlink" width="22px" height="19px" xmlns="http://www.w3.org/2000/svg">
  <g transform="matrix(1 0 0 1 -955 -567 )">
    <path d="M 16.3342633928571 14.8849826388889  C 17.9752604166667 13.5490451388889  19.3400297619048 11.7540509259259  20.4285714285714 9.5  C 19.1845238095238 6.90509259259259  17.6253720238095 4.96440972222222  15.7511160714286 3.67795138888889  C 16.2503720238095 4.8214699074074  16.5 6.05844907407407  16.5 7.38888888888889  C 16.5 9.4230324074074  15.9618675595238 11.1630497685185  14.8856026785714 12.6089409722222  C 13.809337797619 14.0548321759259  12.5141369047619 14.7777777777778  11 14.7777777777778  C 9.4858630952381 14.7777777777778  8.19066220238095 14.0548321759259  7.11439732142857 12.6089409722222  C 6.03813244047619 11.1630497685185  5.5 9.4230324074074  5.5 7.38888888888889  C 5.5 6.05844907407407  5.74962797619048 4.8214699074074  6.24888392857143 3.67795138888889  C 4.37462797619048 4.96440972222222  2.81547619047619 6.90509259259259  1.57142857142857 9.5  C 2.65997023809524 11.7540509259259  4.02473958333333 13.5490451388889  5.66573660714286 14.8849826388889  C 7.30673363095238 16.2209201388889  9.08482142857143 16.8888888888889  11 16.8888888888889  C 12.9151785714286 16.8888888888889  14.6932663690476 16.2209201388889  16.3342633928571 14.8849826388889  Z M 11.4174107142857 3.72743055555556  C 11.531994047619 3.57349537037037  11.5892857142857 3.38657407407407  11.5892857142857 3.16666666666667  C 11.5892857142857 2.94675925925926  11.531994047619 2.75983796296296  11.4174107142857 2.60590277777778  C 11.3028273809524 2.45196759259259  11.1636904761905 2.375  11 2.375  C 9.97693452380952 2.375  9.0991443452381 2.86704282407407  8.36662946428572 3.85112847222222  C 7.63411458333333 4.83521412037037  7.26785714285714 6.01446759259259  7.26785714285714 7.38888888888889  C 7.26785714285714 7.60879629629629  7.32514880952381 7.79571759259259  7.43973214285714 7.94965277777778  C 7.55431547619048 8.10358796296296  7.69345238095238 8.18055555555556  7.85714285714286 8.18055555555556  C 8.02083333333333 8.18055555555556  8.15997023809524 8.10358796296296  8.27455357142857 7.94965277777778  C 8.38913690476191 7.79571759259259  8.44642857142857 7.60879629629629  8.44642857142857 7.38888888888889  C 8.44642857142857 6.44328703703704  8.69605654761905 5.63512731481481  9.1953125 4.96440972222222  C 9.69456845238095 4.29369212962963  10.296130952381 3.95833333333333  11 3.95833333333333  C 11.1636904761905 3.95833333333333  11.3028273809524 3.88136574074074  11.4174107142857 3.72743055555556  Z M 21.7544642857143 8.36197916666667  C 21.9181547619048 8.74681712962963  22 9.1261574074074  22 9.5  C 22 9.87384259259259  21.9181547619048 10.2531828703704  21.7544642857143 10.6380208333333  C 20.608630952381 13.1669560185185  19.0678943452381 15.1928530092593  17.1322544642857 16.7157118055556  C 15.1966145833333 18.2385706018519  13.1525297619048 19  11 19  C 8.84747023809524 19  6.80338541666667 18.2358217592593  4.86774553571429 16.7074652777778  C 2.93210565476191 15.1791087962963  1.39136904761905 13.1559606481481  0.245535714285714 10.6380208333333  C 0.0818452380952381 10.2531828703704  0 9.87384259259259  0 9.5  C 0 9.1261574074074  0.0818452380952381 8.74681712962963  0.245535714285714 8.36197916666667  C 1.39136904761905 5.84403935185185  2.93210565476191 3.8208912037037  4.86774553571429 2.29253472222222  C 6.80338541666667 0.764178240740739  8.84747023809524 0  11 0  C 13.1525297619048 0  15.1966145833333 0.764178240740739  17.1322544642857 2.29253472222222  C 19.0678943452381 3.8208912037037  20.608630952381 5.84403935185185  21.7544642857143 8.36197916666667  Z " fill-rule="nonzero" fill="#ffffff" stroke="none" transform="matrix(1 0 0 1 955 567 )" />
  </g>
</svg>