<?xml version="1.0" encoding="utf-8"?>
<svg version="1.1" xmlns:xlink="http://www.w3.org/1999/xlink" width="29px" height="30px" xmlns="http://www.w3.org/2000/svg">
  <g transform="matrix(1 0 0 1 -1506 -496 )">
    <path d="M 8.05555555555556 15  L 26.5833333333333 15  C 27.2546296296296 15  27.8252314814815 15.1822916666667  28.2951388888889 15.546875  C 28.7650462962963 15.9114583333333  29 16.3541666666667  29 16.875  L 29 28.125  C 29 28.6458333333333  28.7650462962963 29.0885416666667  28.2951388888889 29.453125  C 27.8252314814815 29.8177083333333  27.2546296296296 30  26.5833333333333 30  L 2.41666666666667 30  C 1.74537037037037 30  1.17476851851852 29.8177083333333  0.704861111111111 29.453125  C 0.234953703703704 29.0885416666667  0 28.6458333333333  0 28.125  L 0 16.875  C 0 16.3541666666667  0.234953703703704 15.9114583333333  0.704861111111111 15.546875  C 1.17476851851852 15.1822916666667  1.74537037037037 15  2.41666666666667 15  L 3.22222222222222 15  L 3.22222222222222 8.75  C 3.22222222222222 6.34114583333333  4.32566550925926 4.28059895833333  6.53255208333333 2.568359375  C 8.73943865740741 0.856119791666669  11.3952546296296 0  14.5 0  C 17.6047453703704 0  20.2605613425926 0.856119791666669  22.4674479166667 2.568359375  C 24.6743344907407 4.28059895833333  25.7777777777778 6.34114583333333  25.7777777777778 8.75  C 25.7777777777778 9.08854166666666  25.6183449074074 9.38151041666666  25.2994791666667 9.62890625  C 24.9806134259259 9.87630208333333  24.6030092592593 10  24.1666666666667 10  L 22.5555555555556 10  C 22.119212962963 10  21.7416087962963 9.87630208333333  21.4227430555556 9.62890625  C 21.1038773148148 9.38151041666666  20.9444444444444 9.08854166666666  20.9444444444444 8.75  C 20.9444444444444 7.36979166666667  20.3151041666667 6.19140625  19.0564236111111 5.21484375  C 17.7977430555556 4.23828125  16.2789351851852 3.75  14.5 3.75  C 12.7210648148148 3.75  11.2022569444444 4.23828125  9.94357638888889 5.21484375  C 8.68489583333333 6.19140625  8.05555555555556 7.36979166666667  8.05555555555556 8.75  L 8.05555555555556 15  Z " fill-rule="nonzero" fill="#333333" stroke="none" transform="matrix(1 0 0 1 1506 496 )" />
  </g>
</svg>