<?xml version="1.0" encoding="utf-8"?>
<svg version="1.1" xmlns:xlink="http://www.w3.org/1999/xlink" width="30px" height="27px" xmlns="http://www.w3.org/2000/svg">
  <g transform="matrix(1 0 0 1 -1499 -411 )">
    <path d="M 29.6819196428571 8.960625  C 29.8939732142857 9.174375  30 9.4275  30 9.72  C 30 10.0125  29.8939732142857 10.265625  29.6819196428571 10.479375  L 21.1104910714286 19.119375  C 20.8984375 19.333125  20.6473214285714 19.44  20.3571428571429 19.44  C 20.0669642857143 19.44  19.8158482142857 19.333125  19.6037946428571 19.119375  C 19.3917410714286 18.905625  19.2857142857143 18.6525  19.2857142857143 18.36  L 19.2857142857143 14.04  L 15.5357142857143 14.04  C 14.4419642857143 14.04  13.4626116071429 14.07375  12.59765625 14.14125  C 11.7327008928571 14.20875  10.8733258928571 14.3296875  10.01953125 14.5040625  C 9.16573660714286 14.6784375  8.42354910714286 14.9175  7.79296875 15.22125  C 7.16238839285714 15.525  6.57366071428571 15.9159375  6.02678571428571 16.3940625  C 5.47991071428571 16.8721875  5.03348214285714 17.4403125  4.6875 18.0984375  C 4.34151785714286 18.7565625  4.07087053571429 19.535625  3.87555803571429 20.435625  C 3.68024553571429 21.335625  3.58258928571429 22.35375  3.58258928571429 23.49  C 3.58258928571429 24.10875  3.61049107142857 24.800625  3.66629464285714 25.565625  C 3.66629464285714 25.633125  3.68024553571429 25.7653125  3.70814732142857 25.9621875  C 3.73604910714286 26.1590625  3.75 26.308125  3.75 26.409375  C 3.75 26.578125  3.70256696428571 26.71875  3.60770089285714 26.83125  C 3.51283482142857 26.94375  3.38169642857143 27  3.21428571428571 27  C 3.03571428571429 27  2.87946428571429 26.904375  2.74553571428571 26.713125  C 2.66741071428571 26.611875  2.59486607142857 26.488125  2.52790178571429 26.341875  C 2.4609375 26.195625  2.38560267857143 26.026875  2.30189732142857 25.835625  C 2.21819196428571 25.644375  2.15959821428571 25.509375  2.12611607142857 25.430625  C 0.708705357142857 22.224375  0 19.6875  0 17.82  C 0 15.58125  0.295758928571428 13.708125  0.887276785714286 12.200625  C 2.6953125 7.666875  7.578125 5.4  15.5357142857143 5.4  L 19.2857142857143 5.4  L 19.2857142857143 1.08  C 19.2857142857143 0.787499999999997  19.3917410714286 0.534374999999997  19.6037946428571 0.320624999999999  C 19.8158482142857 0.106874999999999  20.0669642857143 0  20.3571428571429 0  C 20.6473214285714 0  20.8984375 0.106874999999999  21.1104910714286 0.320624999999999  L 29.6819196428571 8.960625  Z " fill-rule="nonzero" fill="#428bca" stroke="none" transform="matrix(1 0 0 1 1499 411 )" />
  </g>
</svg>